<?xml version="1.0" encoding="UTF-8" standalone="no"?>
<!-- Created with Inkscape (http://www.inkscape.org/) -->

<svg
   version="1.1"
   id="svg1"
   width="512"
   height="512"
   viewBox="0 0 511.99999 511.99999"
   sodipodi:docname="reddit-shield-logo.svg"
   inkscape:version="1.3.2 (1:1.3.2+202311252150+091e20ef0f)"
   xml:space="preserve"
   xmlns:inkscape="http://www.inkscape.org/namespaces/inkscape"
   xmlns:sodipodi="http://sodipodi.sourceforge.net/DTD/sodipodi-0.dtd"
   xmlns="http://www.w3.org/2000/svg"
   xmlns:svg="http://www.w3.org/2000/svg"><defs
     id="defs1" /><sodipodi:namedview
     id="namedview1"
     pagecolor="#ffffff"
     bordercolor="#666666"
     borderopacity="1.0"
     inkscape:showpageshadow="2"
     inkscape:pageopacity="0.0"
     inkscape:pagecheckerboard="0"
     inkscape:deskcolor="#d1d1d1"
     inkscape:current-layer="g1"><inkscape:page
       x="0"
       y="0"
       inkscape:label="1"
       id="page1"
       width="512"
       height="512"
       margin="0"
       bleed="0" /></sodipodi:namedview><g
     id="g1"
     inkscape:groupmode="layer"
     inkscape:label="1"><g
       id="g5"
       inkscape:export-filename="reddit-shield-16.png"
       inkscape:export-xdpi="96"
       inkscape:export-ydpi="96"><path
         d="m 48.474212,27.150692 -0.3625,-0.140625 -0.359375,0.140625 -6.484381,2.515625 -0.6,0.234375 -0.0375,0.640625 c -0.09063,1.559375 0.153125,3.946875 1.165625,6.278125 1.021881,2.353125 2.84375,4.6875 5.918756,6.01875 l 0.396875,0.171875 0.396875,-0.171875 c 3.075,-1.33125 4.896875,-3.665625 5.91875,-6.01875 1.0125,-2.334375 1.25625,-4.71875 1.165625,-6.278125 l -0.03437,-0.640625 -0.6,-0.234375 z"
         id="path4"
         style="fill:#008b8b;fill-opacity:1;stroke-width:1" /><text
         xml:space="preserve"
         style="font-size:10.0979px;line-height:294.55;font-family:'Roboto Condensed';-inkscape-font-specification:'Roboto Condensed, ';letter-spacing:0px;word-spacing:0px;fill:#ffffff;stroke-width:0.999996"
         x="46.814411"
         y="35.569706"
         id="text1"
         transform="scale(0.94837367,1.0544367)"><tspan
           sodipodi:role="line"
           id="tspan1"
           x="46.814411"
           y="35.569706"
           style="font-style:normal;font-variant:normal;font-weight:normal;font-stretch:normal;font-family:'Arial Black';-inkscape-font-specification:'Arial Black, ';fill:#ffffff;stroke-width:0.999996">R</tspan></text></g><g
       id="g4"
       inkscape:export-filename="reddit-shield-32.png"
       inkscape:export-xdpi="96"
       inkscape:export-ydpi="96"><path
         d="m 102.26673,31.745382 -0.725,-0.28125 -0.71875,0.28125 -12.968761,5.03125 -1.2,0.46875 -0.075,1.28125 c -0.18126,3.11875 0.30625,7.89375 2.33125,12.55625 2.043762,4.70625 5.6875,9.375 11.837511,12.0375 l 0.79375,0.34375 0.79375,-0.34375 c 6.15,-2.6625 9.79375,-7.33125 11.8375,-12.0375 2.025,-4.66875 2.5125,-9.4375 2.33125,-12.55625 l -0.0687,-1.28125 -1.2,-0.46875 z"
         id="path6"
         style="fill:#008b8b;fill-opacity:1;stroke-width:1" /><text
         xml:space="preserve"
         style="font-size:22.3981px;line-height:294.55;font-family:'Roboto Condensed';-inkscape-font-specification:'Roboto Condensed, ';letter-spacing:0px;word-spacing:0px;fill:#ffffff;stroke-width:0.999999"
         x="92.491829"
         y="53.509972"
         id="text2"><tspan
           sodipodi:role="line"
           id="tspan2"
           x="92.491829"
           y="53.509972"
           style="font-style:normal;font-variant:normal;font-weight:normal;font-stretch:normal;font-family:'Arial Black';-inkscape-font-specification:'Arial Black, ';fill:#ffffff;stroke-width:0.999999">R</tspan></text></g><g
       id="g3"
       inkscape:export-filename="reddit-shield-512.png"
       inkscape:export-xdpi="96"
       inkscape:export-ydpi="96"><path
         d="m 433.19856,20.622762 -11.6,-4.5 -11.5,4.5 -207.50021,80.500008 -19.2,7.5 -1.2,20.5 c -2.9,49.90001 4.9,126.29999 37.3,200.89999 32.7002,75.30001 91.00001,150.00001 189.40021,192.60001 l 12.7,5.5 12.7,-5.5 c 98.40001,-42.6 156.70001,-117.3 189.40001,-192.60001 32.4,-74.7 40.2,-150.99998 37.3,-200.89999 l -1.1,-20.5 -19.2,-7.5 z"
         id="path1"
         style="fill:#008b8b;fill-opacity:1;stroke-width:1" /><text
         xml:space="preserve"
         style="font-size:362.124px;line-height:294.55;font-family:'Roboto Condensed';-inkscape-font-specification:'Roboto Condensed, ';letter-spacing:0px;word-spacing:0px;fill:#ffffff;stroke-width:1"
         x="278.46747"
         y="370.71732"
         id="text3"><tspan
           sodipodi:role="line"
           id="tspan3"
           x="278.46747"
           y="370.71732"
           style="font-style:normal;font-variant:normal;font-weight:normal;font-stretch:normal;font-family:'Arial Black';-inkscape-font-specification:'Arial Black, ';fill:#ffffff;stroke-width:1">R</tspan></text></g><g
       id="g7"
       inkscape:export-filename="../../../webstore/assets/icon-128x128.png"
       inkscape:export-xdpi="96"
       inkscape:export-ydpi="96"><rect
         style="fill:none;fill-opacity:1;stroke:#4d4d4d;stroke-width:0.5;stroke-linecap:round;stroke-linejoin:round;stroke-miterlimit:4.7;paint-order:stroke fill markers"
         id="rect6"
         width="127.5"
         height="127.5"
         x="9.9004021"
         y="166.29631" /><g
         id="g6"
         inkscape:export-filename="reddit-shield-32.png"
         inkscape:export-xdpi="96"
         inkscape:export-ydpi="96"
         transform="matrix(3,0,0,3,-230.97477,87.653914)"
         style="stroke-width:0.333333"><path
           d="m 102.26673,31.745382 -0.725,-0.28125 -0.71875,0.28125 -12.968761,5.03125 -1.2,0.46875 -0.075,1.28125 c -0.18126,3.11875 0.30625,7.89375 2.33125,12.55625 2.043762,4.70625 5.6875,9.375 11.837511,12.0375 l 0.79375,0.34375 0.79375,-0.34375 c 6.15,-2.6625 9.79375,-7.33125 11.8375,-12.0375 2.025,-4.66875 2.5125,-9.4375 2.33125,-12.55625 l -0.0687,-1.28125 -1.2,-0.46875 z"
           id="path5"
           style="fill:#008b8b;fill-opacity:1;stroke-width:0.333333" /><text
           xml:space="preserve"
           style="font-size:22.3981px;line-height:294.55;font-family:'Roboto Condensed';-inkscape-font-specification:'Roboto Condensed, ';letter-spacing:0px;word-spacing:0px;fill:#ffffff;stroke-width:0.333333"
           x="92.491829"
           y="53.509972"
           id="text5"><tspan
             sodipodi:role="line"
             id="tspan5"
             x="92.491829"
             y="53.509972"
             style="font-style:normal;font-variant:normal;font-weight:normal;font-stretch:normal;font-family:'Arial Black';-inkscape-font-specification:'Arial Black, ';fill:#ffffff;stroke-width:0.333333">R</tspan></text></g></g></g></svg>
