<?xml version="1.0" encoding="UTF-8" standalone="no"?>
<!-- Created with Inkscape (http://www.inkscape.org/) -->

<svg
   version="1.1"
   id="svg1"
   width="512"
   height="512"
   viewBox="0 0 511.99999 511.99999"
   sodipodi:docname="reddit-shield-logo.svg"
   inkscape:version="1.3.2 (1:1.3.2+202311252150+091e20ef0f)"
   xmlns:inkscape="http://www.inkscape.org/namespaces/inkscape"
   xmlns:sodipodi="http://sodipodi.sourceforge.net/DTD/sodipodi-0.dtd"
   xmlns="http://www.w3.org/2000/svg"
   xmlns:svg="http://www.w3.org/2000/svg">
  <defs
     id="defs1" />
  <sodipodi:namedview
     id="namedview1"
     pagecolor="#ffffff"
     bordercolor="#666666"
     borderopacity="1.0"
     inkscape:showpageshadow="2"
     inkscape:pageopacity="0.0"
     inkscape:pagecheckerboard="0"
     inkscape:deskcolor="#d1d1d1"
     inkscape:current-layer="g1">
    <inkscape:page
       x="0"
       y="0"
       inkscape:label="1"
       id="page1"
       width="512"
       height="512"
       margin="0"
       bleed="0" />
  </sodipodi:namedview>
  <g
     id="g1"
     inkscape:groupmode="layer"
     inkscape:label="1">
    <rect
       style="fill:#b3b3b3;stroke:#4d4d4d;stroke-width:0.5;stroke-linecap:round;stroke-linejoin:round;stroke-miterlimit:4.7;paint-order:stroke fill markers"
       id="rect4"
       width="16"
       height="16"
       x="-53.67009"
       y="19.287207" />
    <g
       id="g4"
       transform="matrix(2.0000001,0,0,2.0000001,-211.68937,-85.441377)"
       style="stroke-width:0.5"
       inkscape:export-filename="./reddit-shield-512.png"
       inkscape:export-xdpi="96"
       inkscape:export-ydpi="96">
      <path
         d="m 322.44395,53.032067 -5.8,-2.25 -5.75,2.25 -103.7501,40.250001 -9.6,3.75 -0.6,10.250002 c -1.45,24.95 2.45,63.14999 18.65,100.44999 16.3501,37.65 45.5,75 94.7001,96.3 l 6.35,2.75 6.35,-2.75 c 49.2,-21.3 78.35,-58.65 94.7,-96.3 16.2,-37.35 20.1,-75.49999 18.65,-100.44999 l -0.55,-10.250002 -9.6,-3.75 z"
         id="path1"
         style="fill:#fd4400;fill-opacity:1;stroke-width:0.5" />
      <path
         id="path3"
         d="m 334.43911,183.01702 c 0,-8.19021 6.66587,-14.85446 14.856,-14.85446 8.18513,0 14.84938,6.66425 14.84938,14.85446 0,19.65143 -29.70538,19.65143 -29.70538,0 z m 17.47302,39.24383 v 0 c -10.14065,10.12025 -29.56103,10.90733 -35.27514,10.90733 -5.71246,0 -25.13358,-0.78708 -35.25939,-10.91332 -1.49967,-1.50003 -1.49967,-3.93694 0,-5.43697 1.49892,-1.50456 3.93693,-1.50456 5.44187,0 6.3886,6.3891 20.05531,7.82848 29.81752,7.82848 9.76289,0 23.43191,-1.43938 29.83187,-7.83446 1.50633,-1.49858 3.94175,-1.49241 5.44327,0.006 1.49825,1.50604 1.49825,3.94311 0,5.44296 z m -67.95847,-54.09829 c 8.18336,0 14.8413,6.66425 14.8413,14.85446 0,8.19168 -6.65794,14.85025 -14.8413,14.85025 -19.6584,0 -19.6584,-29.70471 0,-29.70471 z m 127.69024,0 c 0,-11.48165 -9.30562,-20.78888 -20.79217,-20.78888 -5.60217,0 -10.68222,2.22628 -14.42137,5.83404 -14.20732,-10.25256 -33.79469,-16.8779 -55.59696,-17.63836 l 9.46453,-44.5596 30.9458,6.578266 c 0.37777,7.867364 6.81825,14.142454 14.78452,14.142454 8.19657,0 14.84783,-6.64478 14.84783,-14.84942 0,-8.204588 -6.65126,-14.847758 -14.84783,-14.847758 -5.84049,0 -10.83304,3.395366 -13.26364,8.282462 l -34.54704,-7.34525 c -0.96476,-0.205928 -1.9685,-0.02108 -2.79545,0.522114 -0.83021,0.535087 -1.40577,1.379875 -1.61173,2.338165 L 313.23681,135.558 c -22.1367,0.61292 -42.02532,7.24638 -56.42658,17.61569 -3.73187,-3.5851 -8.79084,-5.80001 -14.37209,-5.80001 -11.4878,0 -20.79424,9.30723 -20.79424,20.78888 0,8.45485 5.04681,15.70816 12.28558,18.96393 -6.77891,43.1673 47.77906,64.20525 82.667,64.20525 34.91998,0 89.3463,-20.99108 82.67723,-64.16585 7.28524,-3.23614 12.37019,-10.51672 12.37019,-19.00333"
         style="fill:#ffffff;fill-opacity:1;fill-rule:evenodd;stroke:none;stroke-width:0.0714165" />
    </g>
    <g
       id="g5"
       inkscape:export-filename="reddit-shield-16.png"
       inkscape:export-xdpi="96"
       inkscape:export-ydpi="96">
      <path
         d="m 48.474212,27.150692 -0.3625,-0.140625 -0.359375,0.140625 -6.484381,2.515625 -0.6,0.234375 -0.0375,0.640625 c -0.09063,1.559375 0.153125,3.946875 1.165625,6.278125 1.021881,2.353125 2.84375,4.6875 5.918756,6.01875 l 0.396875,0.171875 0.396875,-0.171875 c 3.075,-1.33125 4.896875,-3.665625 5.91875,-6.01875 1.0125,-2.334375 1.25625,-4.71875 1.165625,-6.278125 l -0.03437,-0.640625 -0.6,-0.234375 z"
         id="path4"
         style="fill:#fd4400;fill-opacity:1;stroke-width:1" />
      <path
         id="path5"
         d="m 49.048298,34.818445 c 0,-0.431064 0.350836,-0.781814 0.781895,-0.781814 0.430797,0 0.781547,0.35075 0.781547,0.781814 0,1.034285 -1.563442,1.034285 -1.563442,0 z m 0.919633,2.065464 v 0 c -0.533718,0.532645 -1.555843,0.57407 -1.856586,0.57407 -0.300656,0 -1.32282,-0.04142 -1.855757,-0.574385 -0.07893,-0.07895 -0.07893,-0.207207 0,-0.286156 0.07889,-0.07919 0.207206,-0.07919 0.286414,0 0.336242,0.336268 1.055543,0.412025 1.569343,0.412025 0.513836,0 1.233258,-0.07576 1.570099,-0.41234 0.07928,-0.07887 0.20746,-0.07854 0.286487,3.16e-4 0.07885,0.07927 0.07885,0.207532 0,0.28647 z M 46.39117,34.036631 c 0.430703,0 0.781121,0.35075 0.781121,0.781814 0,0.431141 -0.350418,0.781591 -0.781121,0.781591 -1.034653,0 -1.034653,-1.563405 0,-1.563405 z m 6.720539,0 c 0,-0.604297 -0.48977,-1.094152 -1.094325,-1.094152 -0.294851,0 -0.562223,0.117173 -0.75902,0.307055 -0.747753,-0.539609 -1.778668,-0.88831 -2.926155,-0.928335 l 0.498133,-2.345242 1.628726,0.346225 c 0.01988,0.414072 0.358856,0.74434 0.778133,0.74434 0.431398,0 0.781464,-0.349726 0.781464,-0.781549 0,-0.431821 -0.350066,-0.781461 -0.781464,-0.781461 -0.307395,0 -0.57016,0.178704 -0.698087,0.435919 l -1.818265,-0.386592 c -0.05078,-0.01084 -0.103605,-0.0011 -0.147129,0.02748 -0.0437,0.02816 -0.07399,0.07262 -0.08483,0.123062 l -0.556504,2.617221 c -1.165089,0.03226 -2.211859,0.381388 -2.96982,0.927142 -0.196414,-0.18869 -0.462676,-0.305264 -0.756425,-0.305264 -0.604622,0 -1.094434,0.489854 -1.094434,1.094151 0,0.444992 0.265621,0.826746 0.646609,0.998102 -0.356784,2.271963 2.514688,3.379224 4.350895,3.379224 1.837894,0 4.702437,-1.104794 4.351433,-3.377151 0.383433,-0.170323 0.651063,-0.553511 0.651063,-1.000175"
         style="fill:#ffffff;fill-opacity:1;fill-rule:evenodd;stroke:none;stroke-width:0.142833" />
    </g>
    <g
       id="g7"
       inkscape:export-filename="reddit-shield-32.png"
       inkscape:export-xdpi="96"
       inkscape:export-ydpi="96"
       transform="matrix(2,0,0,2,5.3183067,-22.556002)"
       style="stroke-width:0.5">
      <path
         d="m 48.474212,27.150692 -0.3625,-0.140625 -0.359375,0.140625 -6.484381,2.515625 -0.6,0.234375 -0.0375,0.640625 c -0.09063,1.559375 0.153125,3.946875 1.165625,6.278125 1.021881,2.353125 2.84375,4.6875 5.918756,6.01875 l 0.396875,0.171875 0.396875,-0.171875 c 3.075,-1.33125 4.896875,-3.665625 5.91875,-6.01875 1.0125,-2.334375 1.25625,-4.71875 1.165625,-6.278125 l -0.03437,-0.640625 -0.6,-0.234375 z"
         id="path6"
         style="fill:#fd4400;fill-opacity:1;stroke-width:0.5" />
      <path
         id="path7"
         d="m 49.048298,34.818445 c 0,-0.431064 0.350836,-0.781814 0.781895,-0.781814 0.430797,0 0.781547,0.35075 0.781547,0.781814 0,1.034285 -1.563442,1.034285 -1.563442,0 z m 0.919633,2.065464 v 0 c -0.533718,0.532645 -1.555843,0.57407 -1.856586,0.57407 -0.300656,0 -1.32282,-0.04142 -1.855757,-0.574385 -0.07893,-0.07895 -0.07893,-0.207207 0,-0.286156 0.07889,-0.07919 0.207206,-0.07919 0.286414,0 0.336242,0.336268 1.055543,0.412025 1.569343,0.412025 0.513836,0 1.233258,-0.07576 1.570099,-0.41234 0.07928,-0.07887 0.20746,-0.07854 0.286487,3.16e-4 0.07885,0.07927 0.07885,0.207532 0,0.28647 z M 46.39117,34.036631 c 0.430703,0 0.781121,0.35075 0.781121,0.781814 0,0.431141 -0.350418,0.781591 -0.781121,0.781591 -1.034653,0 -1.034653,-1.563405 0,-1.563405 z m 6.720539,0 c 0,-0.604297 -0.48977,-1.094152 -1.094325,-1.094152 -0.294851,0 -0.562223,0.117173 -0.75902,0.307055 -0.747753,-0.539609 -1.778668,-0.88831 -2.926155,-0.928335 l 0.498133,-2.345242 1.628726,0.346225 c 0.01988,0.414072 0.358856,0.74434 0.778133,0.74434 0.431398,0 0.781464,-0.349726 0.781464,-0.781549 0,-0.431821 -0.350066,-0.781461 -0.781464,-0.781461 -0.307395,0 -0.57016,0.178704 -0.698087,0.435919 l -1.818265,-0.386592 c -0.05078,-0.01084 -0.103605,-0.0011 -0.147129,0.02748 -0.0437,0.02816 -0.07399,0.07262 -0.08483,0.123062 l -0.556504,2.617221 c -1.165089,0.03226 -2.211859,0.381388 -2.96982,0.927142 -0.196414,-0.18869 -0.462676,-0.305264 -0.756425,-0.305264 -0.604622,0 -1.094434,0.489854 -1.094434,1.094151 0,0.444992 0.265621,0.826746 0.646609,0.998102 -0.356784,2.271963 2.514688,3.379224 4.350895,3.379224 1.837894,0 4.702437,-1.104794 4.351433,-3.377151 0.383433,-0.170323 0.651063,-0.553511 0.651063,-1.000175"
         style="fill:#ffffff;fill-opacity:1;fill-rule:evenodd;stroke:none;stroke-width:0.0714165" />
    </g>
  </g>
</svg>
