<?xml version="1.0" encoding="UTF-8" standalone="no"?>
<!-- Created with Inkscape (http://www.inkscape.org/) -->

<svg
   version="1.1"
   id="svg1"
   width="2982.6667"
   height="2982.6667"
   viewBox="0 0 2982.6667 2982.6667"
   sodipodi:docname="reddit-logo.svg"
   inkscape:version="1.3.2 (1:1.3.2+202311252150+091e20ef0f)"
   xmlns:inkscape="http://www.inkscape.org/namespaces/inkscape"
   xmlns:sodipodi="http://sodipodi.sourceforge.net/DTD/sodipodi-0.dtd"
   xmlns="http://www.w3.org/2000/svg"
   xmlns:svg="http://www.w3.org/2000/svg">
  <defs
     id="defs1" />
  <sodipodi:namedview
     id="namedview1"
     pagecolor="#ffffff"
     bordercolor="#666666"
     borderopacity="1.0"
     inkscape:showpageshadow="2"
     inkscape:pageopacity="0.0"
     inkscape:pagecheckerboard="0"
     inkscape:deskcolor="#d1d1d1"
     inkscape:current-layer="g1">
    <inkscape:page
       x="0"
       y="0"
       inkscape:label="1"
       id="page1"
       width="2982.6667"
       height="2982.6667"
       margin="0"
       bleed="0" />
  </sodipodi:namedview>
  <g
     id="g1"
     inkscape:groupmode="layer"
     inkscape:label="1">
    <g
       id="group-R5">
      <path
         id="path2"
         d="M 16300,0 H 0 V 16300 H 16300 V 0"
         style="fill:#ffffff;fill-opacity:1;fill-rule:nonzero;stroke:none"
         transform="matrix(0.18298533,0,0,-0.18298533,0,2982.6667)" />
      <path
         id="path3"
         d="m 11538.6,9433.69 c 0,505.11 411.1,916.11 916.2,916.11 504.8,0 915.8,-411 915.8,-916.11 0,-1211.95 -1832,-1211.95 -1832,0 z m 1077.6,-2420.26 v 0 c -625.4,-624.14 -1823.1,-672.68 -2175.5,-672.68 -352.3,0 -1550.05,48.54 -2174.53,673.05 -92.49,92.51 -92.49,242.8 0,335.31 92.44,92.79 242.8,92.79 335.61,0 394,-394.03 1236.86,-482.8 1838.92,-482.8 602.1,0 1445.1,88.77 1839.8,483.17 92.9,92.42 243.1,92.04 335.7,-0.37 92.4,-92.88 92.4,-243.18 0,-335.68 z M 8425.04,10349.8 c 504.69,0 915.3,-411 915.3,-916.11 0,-505.2 -410.61,-915.85 -915.3,-915.85 -1212.38,0 -1212.38,1831.96 0,1831.96 z m 7874.96,0 c 0,708.1 -573.9,1282.1 -1282.3,1282.1 -345.5,0 -658.8,-137.3 -889.4,-359.8 -876.2,632.3 -2084.2,1040.9 -3428.8,1087.8 l 583.7,2748.1 1908.5,-405.7 c 23.3,-485.2 420.5,-872.2 911.8,-872.2 505.5,0 915.7,409.8 915.7,915.8 0,506 -410.2,915.7 -915.7,915.7 -360.2,0 -668.1,-209.4 -818,-510.8 l -2130.6,453 c -59.5,12.7 -121.4,1.3 -172.4,-32.2 -51.2,-33 -86.7,-85.1 -99.4,-144.2 L 10231,12360.6 c -1365.22,-37.8 -2591.8,-446.9 -3479.96,-1086.4 -230.15,221.1 -542.15,357.7 -886.36,357.7 -708.48,0 -1282.43,-574 -1282.43,-1282.1 0,-521.43 311.25,-968.76 757.68,-1169.55 -418.07,-2662.23 2946.65,-3959.69 5098.27,-3959.69 2153.6,0 5510.2,1294.57 5098.9,3957.26 449.3,199.58 762.9,648.59 762.9,1171.98"
         style="fill:#fd4400;fill-opacity:1;fill-rule:evenodd;stroke:none"
         transform="matrix(0.14283333,0,0,-0.14283333,0,2982.6667)" />
    </g>
  </g>
</svg>
